<svg width="181" height="201" viewBox="0 0 181 201" fill="none" xmlns="http://www.w3.org/2000/svg"><path d="M83.971 197.03c43.536-1.852 78.624-8.185 78.37-14.144-.253-5.959-35.752-9.289-79.288-7.436-43.536 1.852-78.623 8.185-78.37 14.144.254 5.959 35.752 9.289 79.288 7.436z" fill="#F3DBDB"></path><path fill-rule="evenodd" clip-rule="evenodd" d="M110.012 29.74s-8.9-.5-9.1 4c0 0 6.6-2.4 9.5.2l-.4-4.2z" fill="#EFA14D"></path><path d="M129.212 166.44l20.6 12.3c3.2 1.9 2.4 6.8-1.3 7.5-12.4 2.4-33.6.3-38.1-9.2-2.5-5.3.6-11.3 2.5-11.3l16.3.7zM26.512 162.34s-32.6 20.4-25.5 24.1c9.3 4.8 37.2-2.6 37.2-2.6l.8-.1c2.5-.3 4.7-1.6 6.1-3.6 3.5-5 8.1-14.4-4.7-17.1l-13.9-.7z" fill="#3B3B3B"></path><path d="M130.912 167.44c-1-.6-1.5-1.7-1.3-2.8l7.1-46.8c.7-5.6-4-3.1-7.3-7.7l-14.7-21.9c-2.9-4.1-4.2-10-8.3-7.1l-3 2.2-30.5-.8-46.4 79.8s-15.6 10.8-8.2 11.5c5.6.6 16.2-1.6 21.5-4.8 1.7-1 3.2-2.4 4.4-4l24.4-34c.7-1 1.5-1.9 2.4-2.8l26.7-26.3c.7-1.1 1-5.7 1.8-4.7l11 15.3c1.3 1.9 1.9 4.2 1.6 6.5l.9 47.3c0 2.1 1.4 4 3.4 4.8 5.8 2.2 17.9 6.5 23.4 6 5.9-.6-4.6-7.2-8.9-9.7z" fill="#AF709E"></path><path d="M169.912 37.04l-3.5-10.2c-.8-2.3-2.7-3.8-4.7-3.5-1.2.2-2.3 1-2.9 2.2-.6 1.2-.8 2.8-.5 4.3l1.3-.3c-.2-1.1-.1-2.2.4-3.1.4-.9 1.2-1.4 1.9-1.5 1.3-.2 2.6.8 3.2 2.5l3.5 10.2c.1.3.4.5.7.5.1 0 .1 0 .2-.1.4-.2.5-.6.4-1z" fill="#9A1919"></path><path fill-rule="evenodd" clip-rule="evenodd" d="M156.912 32.94c1.5-2.9.4-6.2.4-7 0-1-.4.3-.7-1 0-.8.9-2.2 1.2-3 1.6-4.2-1.2-5-2.5-2.2-1.2 2.4-6.9 8.5-7.5 11.2l-.7 3.2c-.4 1.6-1.1 3.1-2.1 4.4l-8.5 10.8c-2.5 3.2-6 5.6-9.9 6.7h-20.8l2.3 21.6 28.2-10.6c2.4-.9 4.4-2.5 5.9-4.6l19.1-26.8-4.4-2.7z" fill="#AF709E"></path><path fill-rule="evenodd" clip-rule="evenodd" d="M156.412 24.54c-1.3 2-2.6 4.7-3.6 6.9-1.6 3.5 1.3 9.6 2.7 9.4 0 0 6-5.2 6.7-7.6-.2-3.9-5.8-6.6-5.8-8.7z" fill="#77486F"></path><path d="M170.812 36.84l-3.5-10.2c-.8-2.3-2.7-3.8-4.7-3.5-1.2.2-2.3 1-2.9 2.2-.6 1.2-.8 2.8-.5 4.3l1.3-.3c-.2-1.1-.1-2.2.4-3.1.4-.9 1.2-1.4 1.9-1.5 1.3-.2 2.6.8 3.2 2.5l3.5 10.2c.1.3.4.5.7.5.1 0 .1 0 .2-.1.4-.2.5-.7.4-1z" fill="#C13547"></path><path d="M160.112 26.04l-3.5 10.2c-.1.3-.4.5-.7.5-.1 0-.1 0-.2-.1-.3-.2-.5-.6-.3-1l3.5-10.2" fill="#9A1919"></path><path d="M162.712 24.64c-1.3-.2-2.6.8-3.2 2.5l-3.5 10.2c-.1.3-.4.5-.7.5-.1 0-.1 0-.2-.1-.3-.2-.5-.6-.3-1l3.5-10.2c.8-2.3 2.7-3.8 4.7-3.5" fill="#C13547"></path><path fill-rule="evenodd" clip-rule="evenodd" d="M161.712 30.84c.6.4 1.7 2.8-.2 3.5-1.3.4-6.5.2-6.5.2s-2.4 0-1.7-2.1c.6-1.7 3.7-1.6 3.7-1.6l3.8.1" fill="#AF709E"></path><path fill-rule="evenodd" clip-rule="evenodd" d="M155.912 30.74s5.8.6 6.7-.4c.6-.7.6-2-.2-2.4-1.2-.6-5.1-.7-5.1-.7h.1c-1 0-2 .4-2.5 1-.6.7-.6 1.7 1 2.5z" fill="#AF709E"></path><path fill-rule="evenodd" clip-rule="evenodd" d="M157.512 27.24s3.7 1.2 4.8.5c.8-.5 1.1-2.1.5-2.7-.9-.9-3.5-.8-4.8-.8-.9.1-3.2 1.9-.5 3z" fill="#AF709E"></path><path fill-rule="evenodd" clip-rule="evenodd" d="M161.987 30.83a.175.175 0 0 1-.166.185c-.956.05-2.436.05-3.673.038a173.649 173.649 0 0 1-2.064-.034l-.131-.003h-.045l.004-.176.004-.175h.045l.13.004a209.6 209.6 0 0 0 2.06.033c1.238.013 2.708.012 3.652-.037a.175.175 0 0 1 .184.166zm-6.25.006a.175.175 0 0 1 .179-.171l-.004.175-.004.175a.175.175 0 0 1-.171-.18zM156.741 27.1a.175.175 0 0 1 .211-.131l-.04.17-.04.172a.176.176 0 0 1-.131-.211zm.171.04l-.04.17.003.001.006.002.026.006a43.834 43.834 0 0 0 .474.102c.319.066.768.154 1.289.242 1.041.175 2.377.352 3.542.352a.175.175 0 1 0 0-.35c-1.135 0-2.449-.174-3.483-.348a35.34 35.34 0 0 1-1.744-.34l-.025-.006-.006-.002h-.002l-.04.17z" fill="#89567E"></path><path fill-rule="evenodd" clip-rule="evenodd" d="M178.412 72.44h-30.1c-1.2 0-2.1-.9-2.1-2.1l1.8-33.8c0-1.2.9-2.1 2.1-2.1h26.6c1.2 0 2.1.9 2.1 2.1l1.8 33.8c-.1 1.1-1 2.1-2.2 2.1z" fill="#EC1D2C"></path><path fill-rule="evenodd" clip-rule="evenodd" d="M126.512 55.94c-12.1 3.5-33.7.4-45.3-6.9-7.7 6-7.4 17.7-12.8 37.4-1.8 6.4 29.3 7.4 46.1 3.7 2.2-14.6 9.2-24.8 12-34.2zM81.612 6.64c0-.1.7-1.7 1.3-3 1.6-3.9-.3-5.3-2.8-1l-3 5" fill="#AF709E"></path><path fill-rule="evenodd" clip-rule="evenodd" d="M74.312 6.64c-1.7.5-2.1 1.6-1.7 2.6l2.3 7.2c.3 1 1.3 1.1 2.3.8l15.4-5.1c1-.3 1.5-1.4 1.1-2.4l-2.2-6.7c-.3-1-1.4-1.6-2.4-1.3l-14.8 4.9z" fill="#3B3B3B"></path><path fill-rule="evenodd" clip-rule="evenodd" d="M72.212 16.74c2.5-1.4 5.4-.6 6.1-.6 1.6-.1 4.6-1.2 5.6-1.4.9-.2 1.9.2 1.6 1-.2.7-3.5 2.1-6 3.3-1.1.6-3.1 1.8-3.6 2.9l-6.7 16c-.6 1.2-.6 1.2 1.2 3.3l24.3 12.1c1.2.3-5.6 16.7-19.9 14.4l-19-19.2c-3.7-3.5-6.1-8.1-1.1-14.7l14.6-22.4 2.9 5.3z" fill="#AF709E"></path><path fill-rule="evenodd" clip-rule="evenodd" d="M74.712 15.94c-.6.3-2.8.9-3.7 1.9-1.3 1.5-5.7.8-5.8.1l6.6-11.5 2.9 9.5z" fill="#77486F"></path><path fill-rule="evenodd" clip-rule="evenodd" d="M74.712 5.34c-.1-.7-1.2-2.7-2.7-.8-.7.9-2.3 4.2-2.3 4.2s-.8 1.9 1 2.1c1.5.1 2.6-2.4 2.6-2.4l1.4-3.1z" fill="#AF709E"></path><path fill-rule="evenodd" clip-rule="evenodd" d="M73.512 7.64s2.2-4.6 3.3-4.8c.8-.1 1.8.5 1.8 1.2 0 1.2-1.8 4.1-1.8 4.1v-.1c-.4.7-1.2 1.3-1.9 1.4-.7.2-1.5-.2-1.4-1.8z" fill="#AF709E"></path><path fill-rule="evenodd" clip-rule="evenodd" d="M74.784 5.205c.074.04.103.132.063.207a19.02 19.02 0 0 0-.942 2.095 21.106 21.106 0 0 0-.325.909l-.017.052-.004.013v.004h-.001l-.146-.045m0 0l-.147-.046v-.001l.002-.004.005-.014.017-.054.068-.204c.06-.175.148-.424.261-.72.227-.59.554-1.372.958-2.13a.153.153 0 0 1 .208-.062" fill="#89567E"></path><path fill-rule="evenodd" clip-rule="evenodd" d="M134.212 104.64l-13.7-11.5c-3.6-3-5-7.8-3.6-12.2l2.4-7.7-2.5-4.9h.1l-2.6-4.7-3.5-7.7h-2.1s3.3 12.9-4.3 12.1c-7.2-.8-11.5-8.9-11-10.2l1.8-4.1-4-1.9-5.8 10.4c-5.3 6.9-12.8 3.7-12.8 3.7l-4.5 20.6-25 46.1c-2.4 4.5.3 10 5.3 10.7 32.2 4.8 67-.5 79.6-2.8 3.1-.6 5.6-2.9 6.3-6 2.1-7.9 4.7-22.9-.1-29.9z" fill="#C8002D"></path><path fill-rule="evenodd" clip-rule="evenodd" d="M109.712 33.74c-1.4-1.1-1.7-3.2-.5-4.6 0 0 10.1-13.9 13.5-11.8 2.5 2 .5 4.7-.6 6.1l-7.7 9.8c-1.2 1.4-3.3 1.7-4.7.5z" fill="#EFA14D"></path><path fill-rule="evenodd" clip-rule="evenodd" d="M108.912 32.64c-.8-1.6-.1-3.6 1.5-4.4l10.3-5.1c3.7-1.6 6.4 1.2 1.7 4.4l-9.1 6.6c-1.7.8-3.6.1-4.4-1.5z" fill="#EFA14D"></path><path fill-rule="evenodd" clip-rule="evenodd" d="M99.012 45.14l-4.4 10.1c-.3.6-.7 2.4-.1 2.6 3.3 1.2 13.5 5.5 14.3 3.8l.1-15.7" fill="#AF709E"></path><path fill-rule="evenodd" clip-rule="evenodd" d="M103.212 49.64c6.3-.1 11.3-7.8 11.2-12.4 0-3.3-3.3-4.1-6.3-4.7-8.1-1.7-13.5 7.3-13.5 11.5.1 3.2 5.6 5.6 8.6 5.6z" fill="#AF709E"></path><path fill-rule="evenodd" clip-rule="evenodd" d="M113.112 45.14c2.1 0 3.6-2 3.6-3.6 0-1.1-1.1-1.6-2.2-1.6-2.3 0-3.6 2.1-3.6 3.6 0 1.2 1.1 1.7 2.2 1.6z" fill="#AF709E"></path><path fill-rule="evenodd" clip-rule="evenodd" d="M108.812 34.74c-1.7-.6-4-2.7-3.4-4.4l5.5-18.2c.6-1.7 2.9-4.6 5.8-3.4 4.2 1.8 3.1 3.7 2.5 5.5l-4.9 19c-1.8 1.9-5.5 1.5-5.5 1.5z" fill="#EFA14D"></path><path fill-rule="evenodd" clip-rule="evenodd" d="M98.012 48.04c1.3 1.1 3.7.8 6.7.9.3 0 .4.5.1.6l-7.8 2c-.2.1-.4-.2-.3-.4l1.1-2.9c-.1-.1.1-.2.2-.2z" fill="#77486F"></path><path fill-rule="evenodd" clip-rule="evenodd" d="M108.512 33.94s5.7 1.7 3.7 7c0 0 .5-.9 2.4-.9 0 0 2-4.2-1.4-7.4l-4.7 1.3z" fill="#EFA14D"></path><path fill-rule="evenodd" clip-rule="evenodd" d="M100.356 36.204a.476.476 0 0 1 .592-.32l3.699 1.1a.508.508 0 0 1 .064.023l7.6 3.5a.476.476 0 1 1-.398.865l-7.569-3.486-3.668-1.09a.475.475 0 0 1-.32-.592z" fill="#3B3B3B"></path><path fill-rule="evenodd" clip-rule="evenodd" d="M96.812 38.64c2.9 0 4.8-2.6 4.8-4.8 0-1.5-1.5-2.2-2.9-2.2-3.1 0-4.8 2.9-4.8 4.8 0 1.6 1.5 2.2 2.9 2.2z" fill="#3B3B3B"></path><path fill-rule="evenodd" clip-rule="evenodd" d="M102.712 41.34c3.1 0 5.1-2.8 5.1-5 0-1.6-1.6-2.3-3.1-2.3-3.3 0-5.1 3-5.1 5 .1 1.6 1.7 2.3 3.1 2.3z" fill="#3B3B3B"></path><path fill-rule="evenodd" clip-rule="evenodd" d="M101.612 42.94s-1.6-1.7-3.1-2.6c-2.1-1.3-2.4 1.3-2.4 1.3h.1c.2.6 1.6 4.3 5.2 1.4.1 0 .2-.1.2-.1z" fill="#C8002D"></path><path fill-rule="evenodd" clip-rule="evenodd" d="M159.112 52.04c2.7 0 4.6-2.5 4.5-4.5 0-1.4-1.4-2.1-2.8-2-3 0-4.6 2.7-4.5 4.5.1 1.4 1.5 2 2.8 2zm11.9-4.6c0 2-1.8 4.5-4.5 4.5-1.3 0-2.7-.6-2.8-2 0-1.8 1.6-4.5 4.5-4.5 1.4-.1 2.8.5 2.8 2zm-9.7 11.1c2.4.1 4.6-.6 6.2-2.1l.7 1.9.9-4.8-4.5.1 1.6 1.1c-1.3 1.3-3.8 2.3-5.9 2.1-2.1-.2-3.8-1.5-4.5-3h-.1c.4 2.3 2.5 4.6 5.6 4.7z" fill="#fff"></path><path opacity=".42" fill-rule="evenodd" clip-rule="evenodd" d="M62.412 143.64v-33.6c0-.4.2-.8.5-1l20-13.1c.3-.2.5-.6.5-1v-22.5c0-.3.1-.6.3-.8l9.8-9.7c.5-.5 1.3-.4 1.8.1.6.9 1.7 2.2 3.1 3.3.4.3.6.8.4 1.2-.7 2.7-4.9 6.9-6.3 8.4-.3.3-.4.8-.3 1.2l6.2 19.9c.2.5 0 1-.5 1.3l-19.8 13c-.3.2-.5.6-.5 1v33.4c0 .7-.6 1.2-1.3 1.2l-12.9-1.1c-.5 0-1-.6-1-1.2z" fill="#E6C7CB"></path></svg>