<svg width="198" height="172" viewBox="0 0 198 172" fill="none" xmlns="http://www.w3.org/2000/svg"><path fill-rule="evenodd" clip-rule="evenodd" d="M77.097 86.712c1.327.275 9.247 8.839 9.247 8.839.79 1.069 12.742 2.746 17.527 2.78 18.081-.674 26.895-6.995 28.747-5.653 14.81 11.802 3.849 21.3 2.518 21.557-20.004 10.232-32.363 8.399-52.78.547-2.386-1.08-11.522-5.245-13.885-9.782-1.311-2.668-2.295-14.906 2.215-13.546 1.062.273 7.428 2.445 6.63 2.439 1.34-1.586-3.935-8.005-.22-7.181z" fill="#7E577D"></path><path d="M66.195 89.244l13.976 5.198-.53 15.157c-7.11-.48-15.993-5.064-18.848-7.171-3.146-2.321 6.997-.766 11.782.081l-.238-.064c-5.175-1.387-9.546-2.56-11.52-3.753-3.152-1.401-1.845-3.605 2.242-2.212l6.813 1.936c-.933-.31-2.69-1.07-6.231-3.082-6.757-3.84-2.776-3.97.019-2.946l8.294 2.446a22.392 22.392 0 0 1-4.914-2.925c-3.717-2.9-2.112-2.985-.845-2.665z" fill="#7E577D"></path><path d="M136.109 66.855c-3.393-2.004-5.303-13.468 6.185-21.238 0 0 5.238-3.197 12.093-.88 6.856 2.316 5.751.148 9.808-2.224 12.777-7.47 8.668 14.78.137 20.828-4.419 3.133-.989 12.216-24.47 10.405 0 0 7.791-12.594-3.753-6.89z" fill="#DBA1C6"></path><path d="M82.288 65.92c2.157.516 3.662 2.293 3.506 4.57l3.045 41.879c-.055 4.426-.326 5.817-4.78 5.797l-39.696-.047c-4.453-.02-4.46.613-4.406-3.814l3.348-44.381c.28-2.023 1.7-3.66 3.864-3.778 8.277-.596 26.873-2.159 35.12-.225z" fill="#EC1D2C"></path><path d="M77.913 66.496c-.077-4.047-1.046-7.973-3.42-11.525-2.38-2.92-6.05-4.58-9.743-4.343a12.183 12.183 0 0 0-9.729 4.764c-2.335 3.658-3.15 7.828-3.073 11.876-.031 2.53-3.848 2.513-3.817-.017-.162-7.463 2.608-15.42 9.777-18.93 7.037-3.13 15.663-1.07 20.038 5.274 2.877 3.934 3.839 8.491 3.784 12.918.225 2.404-3.592 2.388-3.817-.017z" fill="#EC1D2C"></path><path fill-rule="evenodd" clip-rule="evenodd" d="M133.793 138.922c16.451-2.425 34.089-11.299 34.089-11.299s23.328-11.366 24.465-12.5c1.138-1.135 4.419-3.676 1.302-7.895-8.505-11.51-26.425-32.39-41.841-28.1 0 0-10.609 11.922-17.326 6.863 0 0-7.754 5.129-23.028 10.191-3.12 7.937 9.658 17.265 9.658 17.265 2.204 6.65-3.769 27.899 12.681 25.475z" fill="#F5E8EB"></path><path d="M131.647 87.47s-13.501 5.157-22.774 8.23c-9.273 3.074.231 26.27.231 26.27l14.892 6.572s-3.196-5.017-2.511-21.274c.685-16.258 10.162-19.797 10.162-19.797z" fill="#DBC6CA"></path><path fill-rule="evenodd" clip-rule="evenodd" d="M145.689 55.274c5.224-2.832 5.504 5.25 5.332 8.11-1.262 12.842-7.969 11.461-14.558 12.358-3.279.246-6.183-2.752-6.178-6.116-.302-5.052 2.073-10.205 6.06-12.734 2.253-1.428-3.374 4.298 9.344-1.618z" fill="#AF709E"></path><path d="M135.284 62.987c1.115.226 1.61-2.204.49-2.43-1.12-.226-1.605 2.205-.49 2.43zM138.851 63.386c1.115.226 1.605-2.205.49-2.43-1.115-.225-1.61 2.204-.49 2.43zM133.956 68.499c4.164.827 4.995-2.492 4.383-2.877-.612-.385-3.458-.098-4.169-.242-1.254-.02-3.006 2-.214 3.119z" fill="#483348"></path><path fill-rule="evenodd" clip-rule="evenodd" d="M136.532 75.493s9.12.118 12.265-6.602c2.227 1.916 2.987-2.083 1.932 1.068l3.515 10.603s-1.749 7.817-10.412 11.248c-12.783 4.518-12.496 1.568-12.496 1.568-.085.589 5.196-17.885 5.196-17.885z" fill="#AF709E"></path><path fill-rule="evenodd" clip-rule="evenodd" d="M177.631 95.682a.69.69 0 0 1 .715.664c.137 3.644-1.062 7.252-2.888 10.585-1.827 3.336-4.304 6.436-6.779 9.081-2.478 2.646-4.97 4.851-6.841 6.393a69.641 69.641 0 0 1-2.268 1.794 48.849 48.849 0 0 1-.811.599l-.044.032-.012.008-.004.003-.398-.564.397.564a.689.689 0 1 1-.794-1.128l.003-.002.009-.007.041-.028.161-.117c.143-.104.353-.258.621-.461.535-.405 1.302-1 2.221-1.758 1.84-1.516 4.285-3.68 6.712-6.272 2.428-2.593 4.823-5.6 6.576-8.8 1.755-3.204 2.844-6.56 2.72-9.87a.689.689 0 0 1 .663-.716zM155.602 84.296a.691.691 0 0 1 .211.952c-2.983 4.679-6.809 8.628-9.877 11.4a67.8 67.8 0 0 1-3.856 3.238 47.868 47.868 0 0 1-1.452 1.086l-.082.058-.022.015-.006.004-.002.002-.393-.567.393.567a.69.69 0 1 1-.785-1.134v-.001l.005-.003.018-.013.075-.053c.066-.047.166-.118.296-.213.258-.19.637-.47 1.11-.838a66.55 66.55 0 0 0 3.776-3.172c3.018-2.727 6.746-6.581 9.639-11.118a.689.689 0 0 1 .952-.21z" fill="#DBC6CA"></path><path d="M154.751 66.633c-3.164 5.355-6.274 4.632-7.433 3.601l2.265-4.616c2.928-2.875 9.123-5.679 5.168 1.015z" fill="#AF709E"></path><path d="M153.115 76.999c-.736.636-12.028-1.462-13.277-1.95 6.57-2.178 8.822-5.886 8.863-5.89-.702 1.662 1.253 2.536 2.235 1.265l2.179 6.575z" fill="#7E577D"></path><path fill-rule="evenodd" clip-rule="evenodd" d="M83.798 110.154c1.526-.155 12.978 6.397 12.978 6.397 1.216.885 20-3.398 25.174-4.989 9.864-3.269 13.499-7.828 19.134-11.832 19.986 7.705 18.963 23.754 17.696 24.617-18.243 12.435-42.088 14.177-61.54 9.059-2.94-.355-12.446 3.512-16.536-.581-2.322-2.434-3.117-14.312 2.211-14.376 1.238-.066 4.42-.884 3.559-.619.995-1.88-6.965-7.302-2.676-7.676z" fill="#AF709E"></path><path d="M73.377 117.068l16.778 1.304 6.818 15.101c-10.085 1.526-15.174 1.698-22.687.035-3.81-.843-5.81-3.828-.72-4 3.465-.47 4.854-1.028 4.908-1.628-2.858-.263-5.32-1.44-7.928-2.001-7.496-1.612-4.278-4.371-.915-4.215l9.78-.179a25.364 25.364 0 0 1-6.296-1.487c-4.995-1.867-1.214-2.845.262-2.93z" fill="#AF709E"></path><path fill-rule="evenodd" clip-rule="evenodd" d="M18.775 63.043a2.412 2.412 0 0 1 2.997-1.633l11.4 3.365a2.415 2.415 0 0 1-1.365 4.631l-11.4-3.364a2.415 2.415 0 0 1-1.632-2.999zM31.97 43.94a2.412 2.412 0 0 1 3.267.984l5.626 10.474a2.412 2.412 0 1 1-4.251 2.285L30.986 47.21a2.414 2.414 0 0 1 .984-3.27zM18.422 83.038a2.414 2.414 0 0 1 1.314-3.15L30.73 75.37a2.413 2.413 0 1 1 1.834 4.466l-10.992 4.519a2.412 2.412 0 0 1-3.15-1.316z" fill="#F78712"></path></svg>